<?xml version="1.0" standalone="no"?>
<!DOCTYPE svg PUBLIC "-//W3C//DTD SVG 20010904//EN"
 "http://www.w3.org/TR/2001/REC-SVG-20010904/DTD/svg10.dtd">
<svg version="1.0" xmlns="http://www.w3.org/2000/svg"
 width="670.000000pt" height="452.000000pt" viewBox="0 0 670.000000 452.000000"
 preserveAspectRatio="xMidYMid meet">

<g transform="translate(0.000000,452.000000) scale(0.100000,-0.100000)"
fill="#000000" stroke="none">
<path d="M2 2263 l3 -2258 3348 -3 3347 -2 0 2260 0 2260 -3350 0 -3350 0 2
-2257z m5314 1797 c7 -19 50 -138 95 -265 243 -684 539 -1512 644 -1805 57
-157 117 -325 135 -375 64 -180 182 -511 200 -560 86 -236 117 -334 109 -337
-5 -2 -152 -2 -328 0 l-319 3 -47 132 c-26 72 -51 137 -57 142 -6 7 -18 0 -35
-20 -218 -257 -474 -403 -808 -462 -119 -20 -355 -13 -470 16 -105 26 -213 65
-300 109 -68 34 -177 103 -203 129 -7 7 -17 13 -22 13 -11 0 -210 199 -210
210 0 5 -6 15 -13 22 -58 59 -145 220 -197 368 -94 265 -99 559 -14 831 23 75
102 251 136 304 138 215 327 385 543 491 251 122 509 157 799 108 46 -8 48
-26 -22 171 -80 225 -280 778 -287 798 -7 16 11 17 325 15 l332 -3 14 -35z
m-978 -22 c49 -134 201 -561 204 -576 2 -10 -174 -12 -882 -12 l-885 0 -67
182 c-93 252 -149 409 -155 436 l-5 22 885 0 886 0 19 -52z m-2492 -942 c194
-48 350 -124 508 -246 52 -40 154 -142 200 -200 133 -166 174 -250 316 -640
21 -58 91 -247 155 -420 64 -173 138 -376 165 -450 27 -74 73 -202 103 -283
37 -100 51 -150 43 -153 -6 -2 -154 -3 -329 -2 l-319 3 -30 80 c-63 168 -71
190 -78 198 -3 4 -35 -25 -71 -64 -276 -306 -702 -466 -1100 -416 -157 21
-275 54 -405 116 -380 181 -647 527 -731 949 -24 120 -23 375 1 491 22 105 58
216 97 299 16 35 29 65 29 68 0 10 115 182 153 229 189 234 485 406 797 461
122 22 371 12 496 -20z"/>
<path d="M4632 2479 c-248 -37 -458 -219 -539 -466 -37 -110 -38 -275 -5 -383
39 -122 89 -207 172 -290 128 -128 256 -187 431 -197 225 -13 432 87 571 275
207 280 157 686 -111 909 -148 122 -341 179 -519 152z"/>
<path d="M1425 2474 c-111 -23 -246 -94 -321 -170 -83 -82 -146 -181 -181
-280 -24 -70 -27 -94 -28 -209 0 -112 3 -140 24 -200 46 -136 99 -215 206
-313 116 -104 238 -153 400 -159 204 -9 342 44 486 187 138 136 196 264 206
450 5 87 2 120 -16 190 -68 272 -278 465 -552 509 -83 14 -138 13 -224 -5z"/>
</g>
</svg>
