<?xml version="1.0" standalone="no"?>
<!DOCTYPE svg PUBLIC "-//W3C//DTD SVG 20010904//EN"
 "http://www.w3.org/TR/2001/REC-SVG-20010904/DTD/svg10.dtd">
<svg version="1.0" xmlns="http://www.w3.org/2000/svg"
 width="642.000000pt" height="300.000000pt" viewBox="0 0 642.000000 300.000000"
 preserveAspectRatio="xMidYMid meet">

<g transform="translate(0.000000,300.000000) scale(0.100000,-0.100000)"
fill="#000000" stroke="none">
<path d="M2455 2884 c-161 -19 -230 -30 -354 -60 -184 -44 -239 -61 -394 -123
-141 -56 -282 -128 -391 -199 l-71 -47 50 -2 c624 -30 1005 -113 1173 -258
151 -130 95 -334 -126 -458 -102 -57 -355 -127 -502 -139 -33 -3 -27 -8 105
-82 161 -91 257 -148 370 -221 351 -226 535 -299 820 -325 96 -9 130 -8 203 5
138 25 323 92 502 182 303 152 485 317 562 512 19 47 22 75 22 176 0 140 -16
211 -73 330 -39 83 -113 182 -185 248 -237 220 -687 392 -1176 452 -111 13
-445 19 -535 9z"/>
<path d="M148 358 c-2 -139 -1 -259 1 -266 2 -9 18 -12 50 -10 l46 3 3 88 3
89 89 -4 c113 -4 123 -12 128 -108 l4 -70 49 0 49 0 0 73 c0 83 -14 116 -54
136 l-29 14 31 12 c45 20 54 46 50 141 -3 75 -6 86 -29 110 -35 35 -84 43
-251 44 l-137 0 -3 -252z m306 146 c24 -24 22 -118 -4 -144 -17 -17 -33 -20
-110 -20 l-90 0 0 90 0 90 94 0 c73 0 98 -4 110 -16z"/>
<path d="M660 345 l0 -265 180 0 180 0 0 40 0 40 -130 0 -130 0 0 75 0 74 123
3 122 3 3 32 3 32 -123 3 -123 3 -3 68 -3 67 131 0 131 0 -3 43 -3 42 -177 3
-178 2 0 -265z"/>
<path d="M1187 596 c-87 -31 -102 -71 -100 -257 2 -152 15 -200 61 -234 23
-17 46 -20 157 -23 123 -3 132 -2 165 20 38 26 63 82 58 133 -3 28 -6 30 -50
33 l-48 3 0 -34 c0 -61 -17 -72 -114 -72 -120 0 -120 0 -124 173 -2 104 0 141
10 155 26 36 180 45 207 13 5 -6 11 -24 13 -41 3 -28 6 -30 51 -33 l47 -3 0
41 c0 58 -25 105 -65 124 -42 20 -213 21 -268 2z"/>
<path d="M1646 352 c-47 -141 -86 -260 -86 -265 0 -4 22 -7 49 -7 l49 0 17 50
17 51 116 -3 116 -3 15 -47 15 -48 49 0 c59 0 64 -33 -44 288 l-81 242 -73 0
-73 0 -86 -258z m204 46 c22 -63 40 -120 40 -127 0 -7 -28 -11 -85 -11 -47 0
-85 2 -85 5 0 14 82 256 86 253 2 -2 22 -56 44 -120z"/>
<path d="M2110 345 l0 -265 50 0 50 0 2 203 3 202 37 -95 c20 -52 55 -144 78
-203 l42 -108 46 3 45 3 76 199 76 199 3 -202 2 -201 50 0 50 0 0 265 0 266
-81 -3 -81 -3 -69 -184 c-37 -101 -70 -185 -72 -187 -2 -2 -35 81 -74 184
l-71 187 -81 3 -81 3 0 -266z"/>
<path d="M2820 345 l0 -267 178 4 c151 3 181 6 204 21 32 22 48 64 48 126 0
57 -17 92 -54 110 l-28 13 23 12 c57 28 62 161 8 212 l-30 29 -174 3 -175 4 0
-267z m311 151 c7 -14 9 -40 5 -60 -6 -31 -12 -37 -47 -46 -22 -6 -68 -10
-102 -8 l-62 3 -3 68 -3 67 101 0 c97 0 101 -1 111 -24z m3 -202 c20 -19 21
-84 2 -109 -12 -16 -30 -20 -115 -23 l-101 -4 0 76 0 76 99 0 c77 0 103 -4
115 -16z"/>
<path d="M3327 603 c-4 -3 -7 -123 -7 -265 l0 -258 55 0 55 0 0 265 0 265 -48
0 c-27 0 -52 -3 -55 -7z"/>
<path d="M3618 601 c-47 -16 -86 -50 -99 -89 -7 -21 -13 -94 -13 -172 -1 -116
2 -140 19 -174 35 -70 60 -81 195 -84 102 -3 125 -1 165 17 71 31 85 71 85
245 0 225 -27 259 -215 263 -60 1 -122 -2 -137 -6z m232 -97 c12 -12 15 -44
15 -159 0 -182 1 -180 -126 -180 -126 0 -129 4 -129 179 0 148 8 172 63 179
55 8 161 -4 177 -19z"/>
<path d="M4111 597 c-55 -19 -75 -56 -75 -136 0 -117 33 -144 190 -154 50 -4
99 -9 107 -13 24 -9 33 -72 16 -103 -14 -24 -20 -26 -104 -29 -99 -3 -115 5
-115 60 0 28 -1 29 -47 26 l-48 -3 1 -43 c1 -47 26 -89 65 -109 15 -8 67 -13
137 -13 168 0 205 22 217 130 9 72 -10 128 -50 151 -20 12 -67 21 -138 27 -59
5 -113 14 -120 21 -6 6 -12 30 -12 52 0 56 21 69 111 69 76 0 88 -6 99 -53 6
-24 12 -27 51 -27 l44 0 0 38 c0 54 -31 99 -77 111 -51 14 -209 13 -252 -2z"/>
<path d="M4600 345 l0 -265 35 0 35 0 0 265 0 265 -35 0 -35 0 0 -265z"/>
<path d="M4775 598 c-3 -7 -4 -126 -3 -263 l3 -250 150 0 c174 0 210 10 231
61 16 39 18 121 4 158 -5 15 -21 31 -35 38 l-25 11 27 29 c25 26 28 37 27 91
-1 119 -19 130 -221 135 -123 3 -154 1 -158 -10z m273 -44 c46 -9 66 -75 43
-137 -13 -33 -30 -38 -153 -43 l-108 -5 0 96 0 95 94 0 c51 0 107 -3 124 -6z
m19 -235 c15 -5 31 -16 35 -22 11 -16 10 -119 -1 -136 -12 -19 -80 -30 -183
-31 l-88 0 0 100 0 100 104 0 c58 0 117 -5 133 -11z"/>
<path d="M5260 345 l0 -265 30 0 30 0 0 265 0 265 -30 0 -30 0 0 -265z"/>
<path d="M5410 585 l0 -25 156 0 c93 0 154 -4 152 -9 -1 -6 -74 -100 -160
-211 -123 -156 -158 -207 -158 -230 l0 -30 200 0 200 0 0 25 0 25 -166 2 -166
3 167 213 c119 152 165 220 163 235 -3 22 -6 22 -195 25 l-193 2 0 -25z"/>
<path d="M6033 598 c-21 -32 -190 -504 -182 -512 4 -5 18 -6 31 -3 19 5 28 19
42 62 l17 56 132 -3 132 -3 22 -55 c17 -45 26 -56 47 -58 17 -2 26 2 26 10 0
8 -42 126 -93 264 l-93 249 -36 3 c-21 2 -40 -2 -45 -10z m60 -90 c29 -80 85
-233 92 -250 7 -17 -2 -18 -109 -18 -64 0 -116 2 -116 4 0 3 78 223 101 284 5
12 10 22 12 22 3 0 11 -19 20 -42z"/>
</g>
</svg>
